<?xml version="1.0" encoding="utf-8"?>
<svg xmlns="http://www.w3.org/2000/svg" viewBox="0 0 80 80" width="520" height="520">
  <path d="M10 8C7.800781 8 6 9.800781 6 12C6 14.199219 7.800781 16 10 16C12.199219 16 14 14.199219 14 12C14 11.390625 13.851563 10.820313 13.605469 10.300781C16.925781 11.179688 19.535156 13.914063 20.15625 17.4375L27.65625 60.042969C28.128906 62.734375 30.378906 64.726563 33.066406 64.953125C32.410156 65.800781 32 66.851563 32 68C32 70.75 34.25 73 37 73C39.75 73 42 70.75 42 68C42 66.871094 41.605469 65.839844 40.96875 65L54.03125 65C53.394531 65.839844 53 66.871094 53 68C53 70.75 55.25 73 58 73C60.75 73 63 70.75 63 68C63 66.871094 62.605469 65.839844 61.96875 65L67 65L67 63L33.566406 63C31.617188 63 29.964844 61.613281 29.625 59.691406L28.269531 52L60.269531 52C63.5 52 66.324219 49.777344 67.078125 46.632813L72.246094 25.097656L22.824219 21.0625L22.125 17.09375C21.199219 11.839844 16.625 8 11.292969 8 Z M 10 10C11.117188 10 12 10.882813 12 12C12 13.117188 11.117188 14 10 14C8.882813 14 8 13.117188 8 12C8 10.882813 8.882813 10 10 10 Z M 23.183594 23.097656L69.753906 26.902344L65.128906 46.167969C64.589844 48.417969 62.585938 50 60.269531 50L27.921875 50 Z M 34 29C33.449219 29 33 29.449219 33 30C33 30.550781 33.449219 31 34 31C34.550781 31 35 30.550781 35 30C35 29.449219 34.550781 29 34 29 Z M 40 29C39.449219 29 39 29.449219 39 30C39 30.550781 39.449219 31 40 31C40.550781 31 41 30.550781 41 30C41 29.449219 40.550781 29 40 29 Z M 46 29C45.449219 29 45 29.449219 45 30C45 30.550781 45.449219 31 46 31C46.550781 31 47 30.550781 47 30C47 29.449219 46.550781 29 46 29 Z M 52 29C51.449219 29 51 29.449219 51 30C51 30.550781 51.449219 31 52 31C52.550781 31 53 30.550781 53 30C53 29.449219 52.550781 29 52 29 Z M 58 29C57.449219 29 57 29.449219 57 30C57 30.550781 57.449219 31 58 31C58.550781 31 59 30.550781 59 30C59 29.449219 58.550781 29 58 29 Z M 34 33C33.449219 33 33 33.449219 33 34C33 34.550781 33.449219 35 34 35C34.550781 35 35 34.550781 35 34C35 33.449219 34.550781 33 34 33 Z M 40 33C39.449219 33 39 33.449219 39 34C39 34.550781 39.449219 35 40 35C40.550781 35 41 34.550781 41 34C41 33.449219 40.550781 33 40 33 Z M 46 33C45.449219 33 45 33.449219 45 34C45 34.550781 45.449219 35 46 35C46.550781 35 47 34.550781 47 34C47 33.449219 46.550781 33 46 33 Z M 52 33C51.449219 33 51 33.449219 51 34C51 34.550781 51.449219 35 52 35C52.550781 35 53 34.550781 53 34C53 33.449219 52.550781 33 52 33 Z M 58 33C57.449219 33 57 33.449219 57 34C57 34.550781 57.449219 35 58 35C58.550781 35 59 34.550781 59 34C59 33.449219 58.550781 33 58 33 Z M 34 37C33.449219 37 33 37.449219 33 38C33 38.550781 33.449219 39 34 39C34.550781 39 35 38.550781 35 38C35 37.449219 34.550781 37 34 37 Z M 40 37C39.449219 37 39 37.449219 39 38C39 38.550781 39.449219 39 40 39C40.550781 39 41 38.550781 41 38C41 37.449219 40.550781 37 40 37 Z M 46 37C45.449219 37 45 37.449219 45 38C45 38.550781 45.449219 39 46 39C46.550781 39 47 38.550781 47 38C47 37.449219 46.550781 37 46 37 Z M 52 37C51.449219 37 51 37.449219 51 38C51 38.550781 51.449219 39 52 39C52.550781 39 53 38.550781 53 38C53 37.449219 52.550781 37 52 37 Z M 58 37C57.449219 37 57 37.449219 57 38C57 38.550781 57.449219 39 58 39C58.550781 39 59 38.550781 59 38C59 37.449219 58.550781 37 58 37 Z M 34 41C33.449219 41 33 41.449219 33 42C33 42.550781 33.449219 43 34 43C34.550781 43 35 42.550781 35 42C35 41.449219 34.550781 41 34 41 Z M 40 41C39.449219 41 39 41.449219 39 42C39 42.550781 39.449219 43 40 43C40.550781 43 41 42.550781 41 42C41 41.449219 40.550781 41 40 41 Z M 46 41C45.449219 41 45 41.449219 45 42C45 42.550781 45.449219 43 46 43C46.550781 43 47 42.550781 47 42C47 41.449219 46.550781 41 46 41 Z M 52 41C51.449219 41 51 41.449219 51 42C51 42.550781 51.449219 43 52 43C52.550781 43 53 42.550781 53 42C53 41.449219 52.550781 41 52 41 Z M 58 41C57.449219 41 57 41.449219 57 42C57 42.550781 57.449219 43 58 43C58.550781 43 59 42.550781 59 42C59 41.449219 58.550781 41 58 41 Z M 34 45C33.449219 45 33 45.449219 33 46C33 46.550781 33.449219 47 34 47C34.550781 47 35 46.550781 35 46C35 45.449219 34.550781 45 34 45 Z M 40 45C39.449219 45 39 45.449219 39 46C39 46.550781 39.449219 47 40 47C40.550781 47 41 46.550781 41 46C41 45.449219 40.550781 45 40 45 Z M 46 45C45.449219 45 45 45.449219 45 46C45 46.550781 45.449219 47 46 47C46.550781 47 47 46.550781 47 46C47 45.449219 46.550781 45 46 45 Z M 52 45C51.449219 45 51 45.449219 51 46C51 46.550781 51.449219 47 52 47C52.550781 47 53 46.550781 53 46C53 45.449219 52.550781 45 52 45 Z M 58 45C57.449219 45 57 45.449219 57 46C57 46.550781 57.449219 47 58 47C58.550781 47 59 46.550781 59 46C59 45.449219 58.550781 45 58 45 Z M 37 65C38.667969 65 40 66.332031 40 68C40 69.667969 38.667969 71 37 71C35.332031 71 34 69.667969 34 68C34 66.332031 35.332031 65 37 65 Z M 58 65C59.667969 65 61 66.332031 61 68C61 69.667969 59.667969 71 58 71C56.332031 71 55 69.667969 55 68C55 66.332031 56.332031 65 58 65 Z M 37 67C36.449219 67 36 67.449219 36 68C36 68.550781 36.449219 69 37 69C37.550781 69 38 68.550781 38 68C38 67.449219 37.550781 67 37 67 Z M 58 67C57.449219 67 57 67.449219 57 68C57 68.550781 57.449219 69 58 69C58.550781 69 59 68.550781 59 68C59 67.449219 58.550781 67 58 67Z" fill="#5B5B5B" />
</svg>