<?xml version="1.0" encoding="utf-8"?>
<svg xmlns="http://www.w3.org/2000/svg" viewBox="0 0 128 128" width="512" height="512">
  <path d="M64 1C29.26 1 1 29.26 1 64C1 76.01 4.3905469 87.689531 10.810547 97.769531C11.700547 99.169531 13.549219 99.579453 14.949219 98.689453C16.349219 97.799453 16.759141 95.950781 15.869141 94.550781C10.069141 85.430781 7 74.86 7 64C7 32.57 32.57 7 64 7C95.43 7 121 32.57 121 64C121 74.96 117.88047 85.609062 111.98047 94.789062C111.08047 96.179063 111.49086 98.039453 112.88086 98.939453C113.38086 99.259453 113.94 99.419922 114.5 99.419922C115.49 99.419922 116.4493 98.929062 117.0293 98.039062C123.5493 87.889062 127 76.12 127 64C127 29.26 98.74 1 64 1 z M 64 31C51.32 31 41 41.32 41 54C41 66.68 51.32 77 64 77C76.68 77 87 66.68 87 54C87 41.32 76.68 31 64 31 z M 64 37C73.37 37 81 44.63 81 54C81 63.37 73.37 71 64 71C54.63 71 47 63.37 47 54C47 44.63 54.63 37 64 37 z M 64 88.597656C48.745 88.597656 33.490859 94.404531 21.880859 106.01953C21.840859 106.05953 21.809297 106.09086 21.779297 106.13086L21.490234 106.44922C20.380234 107.67922 20.469219 109.56945 21.699219 110.68945C33.299219 121.20945 48.32 127 64 127C79.68 127 94.700781 121.20969 106.30078 110.67969C107.53078 109.56969 107.61977 107.66945 106.50977 106.43945L106.35938 106.28906C106.28938 106.19906 106.19914 106.09953 106.11914 106.01953C94.509141 94.404531 79.255 88.597656 64 88.597656 z M 64 94.597656C76.8425 94.597656 89.684844 99.175078 99.839844 108.33008C89.719844 116.52008 77.11 121 64 121C50.89 121 38.280156 116.52008 28.160156 108.33008C38.315156 99.175078 51.1575 94.597656 64 94.597656 z" fill="#5B5B5B" />
</svg>